<svg xmlns="http://www.w3.org/2000/svg" viewBox="0 0 128 128">
  <g fill="white">
    <path fill-rule="evenodd" d="M34 5h60c16 0 29 13 29 29v60c0 16-13 29-29 29H34C18 123 5 110 5 94V34C5 18 18 5 34 5zm0 6c-13 0-23 10-23 23v60c0 13 10 23 23 23h60c13 0 23-10 23-23V34c0-13-10-23-23-23H34z"/>
    <path d="M20 22h40L42 57zm88 0H68l18 35zM20 106h40L42 71zm88 0H68l18-35z"/>
    <path d="M43 28a7 7 0 0 1 7 7v22l26-23a7 7 0 1 1 9 11L56 69l30 20a7 7 0 1 1-8 12L50 82v11a7 7 0 0 1-14 0V35a7 7 0 0 1 7-7z"/>
    <path fill-rule="evenodd" d="M96 52a12 12 0 1 1 0 24 12 12 0 0 1 0-24zm0 5a7 7 0 1 0 0 14 7 7 0 0 0 0-14z"/>
  </g>
</svg>
